0
SECTION
2
HEADER
9
$INSUNITS
70
4
9
$ACADVER
1
AC1014
9
$HANDSEED
5
FFFF
0
ENDSEC
0
SECTION
2
TABLES
0
TABLE
2
VPORT
5
8
100
AcDbSymbolTable
0
ENDTAB
0
TABLE
2
LTYPE
5
5
100
AcDbSymbolTable
0
LTYPE
5
14
100
AcDbSymbolTableRecord
100
AcDbLinetypeTableRecord
2
BYBLOCK
70
0
0
LTYPE
5
15
100
AcDbSymbolTableRecord
100
AcDbLinetypeTableRecord
2
BYLAYER
70
0
0
ENDTAB
0
TABLE
2
LAYER
5
2
100
AcDbSymbolTable
70
2
0
LAYER
5
50
100
AcDbSymbolTableRecord
100
AcDbLayerTableRecord
2
0
70
0
6
CONTINUOUS
0
ENDTAB
0
TABLE
2
STYLE
5
3
100
AcDbSymbolTable
70
1
0
STYLE
5
11
100
AcDbSymbolTableRecord
100
AcDbTextStyleTableRecord
2
STANDARD
70
0
0
ENDTAB
0
TABLE
2
VIEW
5
6
100
AcDbSymbolTable
70
0
0
ENDTAB
0
TABLE
2
UCS
5
7
100
AcDbSymbolTable
70
0
0
ENDTAB
0
TABLE
2
APPID
5
9
100
AcDbSymbolTable
70
2
0
APPID
5
12
100
AcDbSymbolTableRecord
100
AcDbRegAppTableRecord
2
ACAD
70
0
0
ENDTAB
0
TABLE
2
DIMSTYLE
5
A
100
AcDbSymbolTable
70
1
0
ENDTAB
0
TABLE
2
BLOCK_RECORD
5
1
100
AcDbSymbolTable
70
1
0
BLOCK_RECORD
5
1F
100
AcDbSymbolTableRecord
100
AcDbBlockTableRecord
2
*MODEL_SPACE
0
BLOCK_RECORD
5
1B
100
AcDbSymbolTableRecord
100
AcDbBlockTableRecord
2
*PAPER_SPACE
0
ENDTAB
0
ENDSEC
0
SECTION
2
BLOCKS
0
BLOCK
5
20
100
AcDbEntity
100
AcDbBlockBegin
2
*MODEL_SPACE
0
ENDBLK
5
21
100
AcDbEntity
100
AcDbBlockEnd
0
BLOCK
5
1C
100
AcDbEntity
100
AcDbBlockBegin
2
*PAPER_SPACE
0
ENDBLK
5
1D
100
AcDbEntity
100
AcDbBlockEnd
0
ENDSEC
0
SECTION
2
ENTITIES
0
LWPOLYLINE
5
100
100
AcDbEntity
8
0
100
AcDbPolyline
90
8
70
1
43
0.0
10
-29.999999999999961
20
12.939665797998092
10
30.000000000000021
20
12.939665797998092
42
-0.41421356237309503
10
35.000000000000028
20
7.9396657979980878
10
35.000000000000028
20
-8.0603342020019042
42
-0.41421356237309503
10
30.000000000000021
20
-13.060334202001908
10
-29.999999999999961
20
-13.060334202001908
42
-0.41421356237309503
10
-34.999999999999964
20
-8.0603342020019042
10
-34.999999999999964
20
7.9396657979980878
42
-0.41421356237309503
0
LWPOLYLINE
5
101
100
AcDbEntity
8
0
100
AcDbPolyline
90
8
70
1
43
0.0
10
32.900000000000027
20
7.9396657979980878
42
0.41421356237309503
10
30.000000000000021
20
10.839665797998093
10
-29.999999999999961
20
10.839665797998093
42
0.41421356237309503
10
-32.899999999999963
20
7.9396657979980878
10
-32.899999999999963
20
-8.0603342020019042
42
0.41421356237309503
10
-29.999999999999961
20
-10.96033420200191
10
30.000000000000021
20
-10.96033420200191
42
0.41421356237309503
10
32.900000000000027
20
-8.0603342020019042
0
CIRCLE
5
102
100
AcDbEntity
8
0
100
AcDbCircle
10
30.999999737444671
20
8.9396655354428045
30
0
40
1
210
0
220
-0
230
1
0
CIRCLE
5
103
100
AcDbEntity
8
0
100
AcDbCircle
10
-30.999999737444675
20
8.9396655354428045
30
0
40
1
210
0
220
-0
230
1
0
CIRCLE
5
104
100
AcDbEntity
8
0
100
AcDbCircle
10
-30.999999737444675
20
-9.0603339394466218
30
0
40
1
210
0
220
-0
230
1
0
CIRCLE
5
105
100
AcDbEntity
8
0
100
AcDbCircle
10
30.999999737444806
20
-9.0603339394466218
30
0
40
1
210
0
220
-0
230
1
0
LINE
5
106
100
AcDbEntity
8
0
100
AcDbLine
10
28.799999737444672
20
8.7396655354428017
30
0
11
28.799999737444672
21
12.339665797998091
31
0
0
ARC
5
107
100
AcDbEntity
8
0
100
AcDbCircle
10
30.799999737444679
20
8.7396655354428017
30
0
40
2.0000000000000107
210
0
220
0
230
1
100
AcDbArc
50
180
51
270.00000000000034
0
LINE
5
108
100
AcDbEntity
8
0
100
AcDbLine
10
34.400000000000027
20
6.7396655354428203
30
0
11
30.79999973744469
21
6.739665535442791
31
0
0
LINE
5
109
100
AcDbEntity
8
0
100
AcDbLine
10
34.400000000000027
20
-7.0603339394463411
30
0
11
30.799999737444644
21
-7.0603339394463571
31
0
0
ARC
5
110
100
AcDbEntity
8
0
100
AcDbCircle
10
30.799999737444654
20
-9.0603339394463518
30
0
40
1.9999999999999951
210
0
220
0
230
1
100
AcDbArc
50
90.000000000000313
51
180
0
LINE
5
111
100
AcDbEntity
8
0
100
AcDbLine
10
28.799999737444661
20
-9.0603339394463518
30
0
11
28.799999737444637
21
-12.460334202001908
31
0
0
ARC
5
112
100
AcDbEntity
8
0
100
AcDbCircle
10
-30.999999737444675
20
-9.0603339394466218
30
0
40
1.9999999999999973
210
0
220
0
230
1
100
AcDbArc
50
0
51
90
0
LINE
5
113
100
AcDbEntity
8
0
100
AcDbLine
10
-34.399999999999963
20
-7.0603339394466236
30
0
11
-30.999999737444675
21
-7.0603339394466236
31
0
0
LINE
5
114
100
AcDbEntity
8
0
100
AcDbLine
10
-28.999999737444679
20
-9.0603339394466218
30
0
11
-28.999999737444675
21
-12.460334202001908
31
0
0
LINE
5
115
100
AcDbEntity
8
0
100
AcDbLine
10
-28.999999737444675
20
12.339665797998091
30
0
11
-28.999999737444675
21
8.7396655352833275
31
0
0
ARC
5
116
100
AcDbEntity
8
0
100
AcDbCircle
10
-30.999999737435651
20
8.7396655352833275
30
0
40
1.9999999999909801
210
-0
220
0
230
1
100
AcDbArc
50
-90
51
0
0
LINE
5
117
100
AcDbEntity
8
0
100
AcDbLine
10
-30.999999737435651
20
6.7396655352923478
30
0
11
-34.399999999999963
21
6.73966553528407
31
0
0
LWPOLYLINE
5
118
100
AcDbEntity
8
0
100
AcDbPolyline
90
4
70
1
43
0.0
10
30.999999612902307
20
5.4999999999999982
10
30.999999612902307
20
-5.4999999999999982
10
23.699999612902328
20
-5.5
10
23.699999612902328
20
5.5
0
LINE
5
119
100
AcDbEntity
8
0
100
AcDbLine
10
30.999999612902307
20
-3.2000000000000002
30
0
11
32.09999894652762
21
-3.2000000000000006
31
0
0
LINE
5
120
100
AcDbEntity
8
0
100
AcDbLine
10
32.09999894652762
20
3.2000000000000006
30
0
11
30.999999612902307
21
3.199999999999998
31
0
0
LINE
5
121
100
AcDbEntity
8
0
100
AcDbLine
10
32.09999894652762
20
-3.2000000000000006
30
0
11
32.09999894652762
21
3.2000000000000006
31
0
0
LINE
5
122
100
AcDbEntity
8
0
100
AcDbLine
10
29.749999737444671
20
10.839665797998093
30
0
11
29.749999737444671
21
8.9396655354428045
31
0
0
LINE
5
123
100
AcDbEntity
8
0
100
AcDbLine
10
32.900000000000027
20
7.6896655354428045
30
0
11
30.999999737444671
21
7.6896655354428045
31
0
0
ARC
5
124
100
AcDbEntity
8
0
100
AcDbCircle
10
30.999999737444671
20
8.9396655354428045
30
0
40
1.25
210
0
220
0
230
1
100
AcDbArc
50
180
51
270
0
LINE
5
125
100
AcDbEntity
8
0
100
AcDbLine
10
29.749999737444806
20
-10.96033420200191
30
0
11
29.749999737444806
21
-9.0603339394466218
31
0
0
LINE
5
126
100
AcDbEntity
8
0
100
AcDbLine
10
32.900000000000027
20
-7.8103339394466209
30
0
11
30.999999737444806
21
-7.8103339394466209
31
0
0
LINE
5
127
100
AcDbEntity
8
0
100
AcDbLine
10
-29.749999737444675
20
10.839665797998093
30
0
11
-29.749999737444675
21
8.9396655354428045
31
0
0
LINE
5
128
100
AcDbEntity
8
0
100
AcDbLine
10
-32.899999999999963
20
7.6896655354428045
30
0
11
-30.999999737444675
21
7.6896655354428045
31
0
0
LINE
5
129
100
AcDbEntity
8
0
100
AcDbLine
10
-32.899999999999963
20
-7.8103339394466209
30
0
11
-30.999999737444675
21
-7.8103339394466209
31
0
0
LINE
5
130
100
AcDbEntity
8
0
100
AcDbLine
10
-29.749999737444675
20
-10.96033420200191
30
0
11
-29.749999737444675
21
-9.0603339394466218
31
0
0
ARC
5
131
100
AcDbEntity
8
0
100
AcDbCircle
10
-30.999999737444675
20
-9.0603339394466218
30
0
40
1.25
210
-0
220
0
230
1
100
AcDbArc
50
0
51
90
0
ARC
5
132
100
AcDbEntity
8
0
100
AcDbCircle
10
30.999999737444806
20
-9.0603339394466218
30
0
40
1.25
210
0
220
-0
230
1
100
AcDbArc
50
90
51
180
0
ARC
5
133
100
AcDbEntity
8
0
100
AcDbCircle
10
-30.999999737444675
20
8.9396655354428045
30
0
40
1.25
210
-0
220
0
230
1
100
AcDbArc
50
-90
51
0
0
CIRCLE
5
134
100
AcDbEntity
8
0
100
AcDbCircle
10
5.0423806667878706e-16
20
-6.960334202001909
30
0
40
2.6500000000000004
210
0
220
0
230
1
0
CIRCLE
5
135
100
AcDbEntity
8
0
100
AcDbCircle
10
-17.097635169670507
20
-6.9603342020019108
30
0
40
2.6500000000000004
210
0
220
0
230
1
0
CIRCLE
5
136
100
AcDbEntity
8
0
100
AcDbCircle
10
17.097635169670507
20
-6.9603342020019134
30
0
40
2.6500000000000004
210
0
220
0
230
1
0
CIRCLE
5
137
100
AcDbEntity
8
0
100
AcDbCircle
10
-28.899999999999967
20
1.1679967670758324e-13
30
0
40
2.6500000000000004
210
0
220
0
230
1
0
CIRCLE
5
138
100
AcDbEntity
8
0
100
AcDbCircle
10
28.899999999999967
20
-1.5433339550687136e-14
30
0
40
2.6500000000000004
210
0
220
0
230
1
0
CIRCLE
5
139
100
AcDbEntity
8
0
100
AcDbCircle
10
-25.646452754505717
20
6.8396657979981148
30
0
40
2.6500000000000004
210
0
220
0
230
1
0
CIRCLE
5
140
100
AcDbEntity
8
0
100
AcDbCircle
10
-8.5488175848352128
20
6.8396657979981104
30
0
40
2.6500000000000004
210
0
220
0
230
1
0
CIRCLE
5
141
100
AcDbEntity
8
0
100
AcDbCircle
10
8.5488175848352963
20
6.8396657979980748
30
0
40
2.6500000000000004
210
0
220
0
230
1
0
CIRCLE
5
142
100
AcDbEntity
8
0
100
AcDbCircle
10
25.646452754505805
20
6.8396657979980997
30
0
40
2.6500000000000004
210
0
220
0
230
1
0
LINE
5
143
100
AcDbEntity
8
0
100
AcDbLine
10
0
20
0
30
0
11
4.2555106862926603e-14
21
6.8396657979980926
31
0
0
LINE
5
144
100
AcDbEntity
8
0
100
AcDbLine
10
-8.5488175848352128
20
6.8396657979981104
30
0
11
-25.646452754505717
21
6.8396657979981148
31
0
0
LINE
5
145
100
AcDbEntity
8
0
100
AcDbLine
10
8.5488175848352963
20
6.8396657979980748
30
0
11
25.646452754505805
21
6.8396657979980997
31
0
0
LINE
5
146
100
AcDbEntity
8
0
100
AcDbLine
10
-8.5488175848352128
20
6.8396657979981104
30
0
11
8.5488175848352963
21
6.8396657979980748
31
0
0
LINE
5
147
100
AcDbEntity
8
0
100
AcDbLine
10
0
20
0
30
0
11
5.0423806667878706e-16
21
-6.960334202001909
31
0
0
LINE
5
148
100
AcDbEntity
8
0
100
AcDbLine
10
5.0423806667878706e-16
20
-6.960334202001909
30
0
11
-17.097635169670507
21
-6.9603342020019108
31
0
0
LINE
5
149
100
AcDbEntity
8
0
100
AcDbLine
10
5.0423806667878706e-16
20
-6.960334202001909
30
0
11
17.097635169670507
21
-6.9603342020019134
31
0
0
LINE
5
150
100
AcDbEntity
8
0
100
AcDbLine
10
0
20
0
30
0
11
-28.899999999999967
21
1.1679967670758324e-13
31
0
0
LINE
5
151
100
AcDbEntity
8
0
100
AcDbLine
10
0
20
0
30
0
11
28.899999999999967
21
-1.5433339550687136e-14
31
0
0
CIRCLE
5
152
100
AcDbEntity
8
0
100
AcDbCircle
10
26.599999612902327
20
3.0000000000000004
30
0
40
0.5
210
0
220
0
230
1
0
CIRCLE
5
153
100
AcDbEntity
8
0
100
AcDbCircle
10
26.599999612902327
20
0.99999999999999811
30
0
40
0.5
210
0
220
0
230
1
0
CIRCLE
5
154
100
AcDbEntity
8
0
100
AcDbCircle
10
26.599999612902327
20
-1.000000000000002
30
0
40
0.5
210
0
220
0
230
1
0
CIRCLE
5
155
100
AcDbEntity
8
0
100
AcDbCircle
10
26.599999612902327
20
-3.0000000000000022
30
0
40
0.5
210
0
220
0
230
1
0
LWPOLYLINE
5
156
100
AcDbEntity
8
0
100
AcDbPolyline
90
8
70
1
43
0.0
10
17.052274659605974
20
0.66264645105076259
42
0.41421356237309553
10
15.552274659605974
20
2.1626464510507599
10
-15.552274659605978
20
2.1626464510507599
42
0.41421356237309503
10
-17.052274659605978
20
0.6626464510507607
10
-17.052274659605978
20
-0.57905998412883819
42
0.41421356237309465
10
-15.552274659605978
20
-2.0790599841288397
10
15.552274659605974
20
-2.0790599841288397
42
0.41421356237309503
10
17.052274659605974
20
-0.57905998412884074
0
CIRCLE
5
157
100
AcDbEntity
8
0
100
AcDbCircle
10
11.052274659605972
20
-4.000422174649756e-15
30
0
40
2.6500000000000004
210
0
220
0
230
1
0
CIRCLE
5
158
100
AcDbEntity
8
0
100
AcDbCircle
10
0
20
0
30
0
40
2.6500000000000004
210
0
220
0
230
1
0
CIRCLE
5
159
100
AcDbEntity
8
0
100
AcDbCircle
10
-11.052274659605976
20
4.5205000275867279e-14
30
0
40
2.6500000000000004
210
0
220
0
230
1
0
CIRCLE
5
160
100
AcDbEntity
8
0
100
AcDbCircle
10
-20.926286196623739
20
-5.9530715211465974
30
0
40
1.0000000000000004
210
0
220
-0
230
1
0
CIRCLE
5
161
100
AcDbEntity
8
0
100
AcDbCircle
10
0
20
8.2626464510507596
30
0
40
1.0000000000000004
210
0
220
-0
230
1
0
CIRCLE
5
162
100
AcDbEntity
8
0
100
AcDbCircle
10
20.926286196623735
20
-5.953071521146601
30
0
40
1.0000000000000004
210
0
220
-0
230
1
0
CIRCLE
5
163
100
AcDbEntity
8
0
100
AcDbCircle
10
20.926286196623735
20
-5.953071521146601
30
0
40
1.2000000000000004
210
0
220
0
230
1
0
CIRCLE
5
164
100
AcDbEntity
8
0
100
AcDbCircle
10
-20.926286196623739
20
-5.9530715211465974
30
0
40
1.2000000000000004
210
0
220
0
230
1
0
CIRCLE
5
165
100
AcDbEntity
8
0
100
AcDbCircle
10
0
20
8.2626464510507596
30
0
40
1.2000000000000004
210
0
220
0
230
1
0
LWPOLYLINE
5
166
100
AcDbEntity
8
0
100
AcDbPolyline
90
8
70
1
43
0.0
10
-21.152274659605975
20
-0.57905998412883775
10
-21.152274659605975
20
0.66264645105076037
42
-0.41421356237309503
10
-15.552274659605978
20
6.2626464510507596
10
15.55227465960597
20
6.2626464510507596
42
-0.4142135623730952
10
21.152274659605972
20
0.66264645105076225
10
21.152274659605972
20
-0.57905998412884041
42
-0.41421356237309503
10
15.552274659605974
20
-6.1790599841288412
10
-15.552274659605976
20
-6.1790599841288385
42
-0.41421356237309498
0
ENDSEC
0
SECTION
2
OBJECTS
0
DICTIONARY
5
C
100
AcDbDictionary
3
ACAD_GROUP
350
D
3
ACAD_MLINESTYLE
350
17
0
DICTIONARY
5
D
100
AcDbDictionary
0
DICTIONARY
5
1A
330
C
100
AcDbDictionary
0
DICTIONARY
5
17
100
AcDbDictionary
0
ENDSEC
0
EOF
