0
SECTION
2
HEADER
9
$INSUNITS
70
4
9
$ACADVER
1
AC1014
9
$HANDSEED
5
FFFF
0
ENDSEC
0
SECTION
2
TABLES
0
TABLE
2
VPORT
5
8
100
AcDbSymbolTable
0
ENDTAB
0
TABLE
2
LTYPE
5
5
100
AcDbSymbolTable
0
LTYPE
5
14
100
AcDbSymbolTableRecord
100
AcDbLinetypeTableRecord
2
BYBLOCK
70
0
0
LTYPE
5
15
100
AcDbSymbolTableRecord
100
AcDbLinetypeTableRecord
2
BYLAYER
70
0
0
LTYPE
5
16
100
AcDbSymbolTableRecord
100
AcDbLinetypeTableRecord
2
DASHED
70
0
3
Dashed __ __ __ __ __ __ __ __ __ __ __ __ __ _
72
65
73
2
40
0.75
49
0.5
74
0
49
-0.25
74
0
0
ENDTAB
0
TABLE
2
LAYER
5
2
100
AcDbSymbolTable
70
2
0
LAYER
5
50
100
AcDbSymbolTableRecord
100
AcDbLayerTableRecord
2
0
70
0
62
7
6
CONTINUOUS
0
ENDTAB
0
TABLE
2
STYLE
5
3
100
AcDbSymbolTable
70
1
0
STYLE
5
11
100
AcDbSymbolTableRecord
100
AcDbTextStyleTableRecord
2
STANDARD
70
0
0
ENDTAB
0
TABLE
2
VIEW
5
6
100
AcDbSymbolTable
70
0
0
ENDTAB
0
TABLE
2
UCS
5
7
100
AcDbSymbolTable
70
0
0
ENDTAB
0
TABLE
2
APPID
5
9
100
AcDbSymbolTable
70
2
0
APPID
5
12
100
AcDbSymbolTableRecord
100
AcDbRegAppTableRecord
2
ACAD
70
0
0
ENDTAB
0
TABLE
2
DIMSTYLE
5
A
100
AcDbSymbolTable
70
1
0
ENDTAB
0
TABLE
2
BLOCK_RECORD
5
1
100
AcDbSymbolTable
70
1
0
BLOCK_RECORD
5
1F
100
AcDbSymbolTableRecord
100
AcDbBlockTableRecord
2
*MODEL_SPACE
0
BLOCK_RECORD
5
1B
100
AcDbSymbolTableRecord
100
AcDbBlockTableRecord
2
*PAPER_SPACE
0
ENDTAB
0
ENDSEC
0
SECTION
2
BLOCKS
0
BLOCK
5
20
100
AcDbEntity
100
AcDbBlockBegin
2
*MODEL_SPACE
0
ENDBLK
5
21
100
AcDbEntity
100
AcDbBlockEnd
0
BLOCK
5
1C
100
AcDbEntity
100
AcDbBlockBegin
2
*PAPER_SPACE
0
ENDBLK
5
1D
100
AcDbEntity
100
AcDbBlockEnd
0
ENDSEC
0
SECTION
2
ENTITIES
0
POINT
5
100
100
AcDbEntity
8
0
100
AcDbPoint
10
-8.25
20
-43.35313001810416
30
0
0
POINT
5
101
100
AcDbEntity
8
0
100
AcDbPoint
10
8.25
20
-43.35313001810416
30
0
0
ARC
5
102
100
AcDbEntity
8
0
100
AcDbCircle
10
0
20
0
30
0
40
12.299999999999997
210
0
220
-0
230
1
100
AcDbArc
50
23.983457439302487
51
156.01654256070981
0
LINE
5
103
100
AcDbEntity
8
0
100
AcDbLine
10
12.300000000000002
20
-4.8989794855663646
30
0
11
12.300000000000002
21
-39.399999999999984
31
0
0
LINE
5
104
100
AcDbEntity
8
0
100
AcDbLine
10
-12.300000000000026
20
-4.898979485562541
30
0
11
-12.300000000000002
21
-39.399999999999984
31
0
0
ARC
5
105
100
AcDbEntity
8
0
100
AcDbCircle
10
-8.7652076970736604e-15
20
-39.399999999999984
30
0
40
12.299999999999994
210
0
220
0
230
1
100
AcDbArc
50
-180
51
0
0
LWPOLYLINE
5
106
100
AcDbEntity
8
0
100
AcDbPolyline
90
8
70
1
43
0.0
10
-2.75
20
-47.25313001810413
10
2.7499999999999982
20
-47.25313001810413
42
0.41421356237309515
10
4.75
20
-45.25313001810413
10
4.75
20
-41.453130018104176
42
0.4142135623730952
10
2.7499999999999991
20
-39.453130018104176
10
-2.7499999999999991
20
-39.453130018104176
42
0.41421356237309498
10
-4.7499999999999956
20
-41.453130018104176
10
-4.75
20
-45.25313001810413
42
0.41421356237309503
0
LINE
5
107
100
AcDbEntity
8
0
100
AcDbLine
10
-3.9000000000000008
20
-48.353130018104132
30
0
11
3.8999999999999995
21
-48.353130018104132
31
0
0
LINE
5
108
100
AcDbEntity
8
0
100
AcDbLine
10
3.8999999999999995
20
-48.353130018104132
30
0
11
3.8999999999999191
21
-46.889436835299549
31
0
0
LINE
5
109
100
AcDbEntity
8
0
100
AcDbLine
10
-3.9000000000000696
20
-46.889436835299435
30
0
11
-3.9000000000000008
21
-48.353130018104132
31
0
0
LWPOLYLINE
5
110
100
AcDbEntity
8
0
100
AcDbPolyline
90
4
70
1
43
0.0
10
7.5
20
-16.386161119901249
10
7.5
20
-34.986161119901254
10
-7.5
20
-34.986161119901254
10
-7.5
20
-16.386161119901249
0
LWPOLYLINE
5
111
100
AcDbEntity
8
0
100
AcDbPolyline
90
4
70
1
43
0.0
10
-2.4999999999999059
20
-26.686161119901321
10
-2.4999999999999978
20
-21.686161119901321
10
2.5000000000000022
20
-21.68616111990125
10
2.5000000000000715
20
-26.68616111990125
0
CIRCLE
5
112
100
AcDbEntity
8
0
100
AcDbCircle
10
-8.25
20
-43.35313001810416
30
0
40
1.2
210
0
220
0
230
1
0
CIRCLE
5
113
100
AcDbEntity
8
0
100
AcDbCircle
10
8.25
20
-43.35313001810416
30
0
40
1.2
210
0
220
0
230
1
0
CIRCLE
5
114
100
AcDbEntity
8
0
100
AcDbCircle
10
0
20
0
30
0
40
1.5000000000000002
210
0
220
0
230
1
0
LINE
5
115
100
AcDbEntity
8
0
100
AcDbLine
10
-9.9695486031359479
20
-41.98084994412028
30
0
11
-7.8764520057017249
21
-39.358075338133474
31
0
0
ARC
5
116
100
AcDbEntity
8
0
100
AcDbCircle
10
-4.75
20
-41.853130018104174
30
0
40
3.9999999999999991
210
0
220
-0
230
1
100
AcDbArc
50
90
51
141.40849845736062
0
LINE
5
117
100
AcDbEntity
8
0
100
AcDbLine
10
-4.75
20
-37.853130018104174
30
0
11
4.75
21
-37.853130018104174
31
0
0
ARC
5
118
100
AcDbEntity
8
0
100
AcDbCircle
10
4.75
20
-41.853130018104153
30
0
40
3.9999999999999893
210
0
220
-0
230
1
100
AcDbArc
50
38.591501542639321
51
90
0
LINE
5
119
100
AcDbEntity
8
0
100
AcDbLine
10
7.8764520057017133
20
-39.358075338133467
30
0
11
9.9695486031359479
21
-41.980849944120273
31
0
0
LINE
5
120
100
AcDbEntity
8
0
100
AcDbLine
10
10.060170191849004
20
-44.603443529404956
30
0
11
8.0412185306345538
21
-47.52642731137832
31
0
0
ARC
5
121
100
AcDbEntity
8
0
100
AcDbCircle
10
4.75
20
-45.25313001810413
30
0
40
4.0000000000000036
210
0
220
0
230
1
100
AcDbArc
50
270
51
325.3665418073511
0
LINE
5
122
100
AcDbEntity
8
0
100
AcDbLine
10
4.75
20
-49.25313001810413
30
0
11
-4.75
21
-49.25313001810413
31
0
0
ARC
5
123
100
AcDbEntity
8
0
100
AcDbCircle
10
-4.75
20
-45.253130018104116
30
0
40
4.0000000000000115
210
0
220
0
230
1
100
AcDbArc
50
214.63345819264899
51
270
0
LINE
5
124
100
AcDbEntity
8
0
100
AcDbLine
10
-8.0412185306345574
20
-47.52642731137832
30
0
11
-10.060170191849004
21
-44.603443529404963
31
0
0
ARC
5
125
100
AcDbEntity
8
0
100
AcDbCircle
10
-8.2499999999999982
20
-43.35313001810416
30
0
40
2.2000000000000055
210
0
220
0
230
1
100
AcDbArc
50
141.40849845736076
51
214.63345819264882
0
ARC
5
126
100
AcDbEntity
8
0
100
AcDbCircle
10
8.2500000000000249
20
-43.353130018104153
30
0
40
2.1999999999999744
210
-0
220
0
230
1
100
AcDbArc
50
-34.633458192649215
51
38.591501542639691
0
ARC
5
127
100
AcDbEntity
8
0
100
AcDbCircle
10
-10.324390243902437
20
4.5931433780812894
30
0
40
1.0000000000000071
210
0
220
0
230
1
100
AcDbArc
50
156.01654256070975
51
246.72641993735036
0
ARC
5
128
100
AcDbEntity
8
0
100
AcDbCircle
10
-12.300000000000043
20
-2.6367796834847468e-15
30
0
40
4
210
-0
220
0
230
1
100
AcDbArc
50
-78.463040967228011
51
66.726419937350443
0
ARC
5
129
100
AcDbEntity
8
0
100
AcDbCircle
10
-11.300000000004697
20
-4.898979485562541
30
0
40
0.99999999999532851
210
0
220
0
230
1
100
AcDbArc
50
101.53695903277202
51
180
0
ARC
5
130
100
AcDbEntity
8
0
100
AcDbCircle
10
11.299999999999999
20
-4.8989794855663646
30
0
40
1.0000000000000031
210
0
220
-0
230
1
100
AcDbArc
50
0
51
78.463040967184895
0
ARC
5
131
100
AcDbEntity
8
0
100
AcDbCircle
10
12.300000000000002
20
2.7755575615628914e-15
30
0
40
4.0000000000000195
210
0
220
0
230
1
100
AcDbArc
50
113.27358006267659
51
258.46304096718438
0
ARC
5
132
100
AcDbEntity
8
0
100
AcDbCircle
10
10.324390243899304
20
4.5931433780825444
30
0
40
1.0000000000023568
210
-0
220
0
230
1
100
AcDbArc
50
-66.72641993732401
51
23.983457439302704
0
CIRCLE
5
133
100
AcDbEntity
8
0
100
AcDbCircle
10
-2.8561536496372224e-15
20
9.3000000000000007
30
0
40
1.2
210
0
220
-0
230
1
0
CIRCLE
5
134
100
AcDbEntity
8
0
100
AcDbCircle
10
-2.8561536496372224e-15
20
9.3000000000000007
30
0
40
2.5
210
0
220
-0
230
1
0
ENDSEC
0
SECTION
2
OBJECTS
0
DICTIONARY
5
C
100
AcDbDictionary
3
ACAD_GROUP
350
D
3
ACAD_MLINESTYLE
350
17
0
DICTIONARY
5
D
100
AcDbDictionary
0
DICTIONARY
5
1A
330
C
100
AcDbDictionary
0
DICTIONARY
5
17
100
AcDbDictionary
0
ENDSEC
0
EOF
